<svg xmlns="http://www.w3.org/2000/svg" width="680" height="500" viewBox="0 0 680 500" role="img" aria-label="03 / VISTA SUPERIOR · SIN ESCALA"><defs><linearGradient id="back" x1="0" x2="1" y2="1"><stop stop-color="#182a30"/><stop offset="1" stop-color="#233e36"/></linearGradient><linearGradient id="bar" x1="0" y1="0" x2="1" y2="1"><stop stop-color="#759b88"/><stop offset=".46" stop-color="#e0ecda"/><stop offset="1" stop-color="#98bda7"/></linearGradient><pattern id="grid" width="40" height="40" patternUnits="userSpaceOnUse"><path d="M40 0H0V40" fill="none" stroke="#fff" stroke-width=".7" opacity=".045"/></pattern></defs><rect width="680" height="500" fill="url(#back)"/><rect width="680" height="500" fill="url(#grid)"/><circle cx="340" cy="250" r="188" fill="none" stroke="#d6f2df" stroke-opacity=".09"/><line x1="233.03" y1="344.50" x2="311.64" y2="110.11" stroke="#f6a084" stroke-width="1.5" stroke-linecap="round"/><line x1="311.64" y1="110.11" x2="475.32" y2="295.39" stroke="#f6a084" stroke-width="1.5" stroke-linecap="round"/><line x1="475.32" y1="295.39" x2="233.03" y2="344.50" stroke="#f6a084" stroke-width="1.5" stroke-linecap="round"/><line x1="523.55" y1="212.79" x2="475.32" y2="295.39" stroke="#f6a084" stroke-width="1.5" stroke-linecap="round"/><line x1="523.55" y1="212.79" x2="233.03" y2="344.50" stroke="url(#bar)" stroke-width="10.799999999999999" stroke-linecap="round"/><line x1="280.45" y1="427.56" x2="233.03" y2="344.50" stroke="#f6a084" stroke-width="1.5" stroke-linecap="round"/><line x1="280.45" y1="427.56" x2="311.64" y2="110.11" stroke="url(#bar)" stroke-width="10.799999999999999" stroke-linecap="round"/><line x1="216.00" y1="109.64" x2="311.64" y2="110.11" stroke="#f6a084" stroke-width="1.5" stroke-linecap="round"/><line x1="216.00" y1="109.64" x2="475.32" y2="295.39" stroke="url(#bar)" stroke-width="10.799999999999999" stroke-linecap="round"/><line x1="523.55" y1="212.79" x2="280.45" y2="427.56" stroke="#f6a084" stroke-width="1.5" stroke-linecap="round"/><line x1="280.45" y1="427.56" x2="216.00" y2="109.64" stroke="#f6a084" stroke-width="1.5" stroke-linecap="round"/><line x1="216.00" y1="109.64" x2="523.55" y2="212.79" stroke="#f6a084" stroke-width="1.5" stroke-linecap="round"/><circle cx="523.55" cy="212.79" r="4.2" fill="#e1ebdc"/><circle cx="280.45" cy="427.56" r="4.2" fill="#e1ebdc"/><circle cx="216.00" cy="109.64" r="4.2" fill="#e1ebdc"/><circle cx="233.03" cy="344.50" r="4.2" fill="#e1ebdc"/><circle cx="311.64" cy="110.11" r="4.2" fill="#e1ebdc"/><circle cx="475.32" cy="295.39" r="4.2" fill="#e1ebdc"/><text x="25" y="474" fill="#9eb6a9" font-family="Arial,sans-serif" font-size="9" letter-spacing="2">03 / VISTA SUPERIOR · SIN ESCALA</text><path d="M630 36h20m-10-10v20" stroke="#9ab5a5" stroke-width=".8"/></svg>