<svg xmlns="http://www.w3.org/2000/svg" width="680" height="500" viewBox="0 0 680 500" role="img" aria-label="02 / ESTUDIO VISUAL DE MÓDULOS"><defs><linearGradient id="back" x1="0" x2="1" y2="1"><stop stop-color="#182a30"/><stop offset="1" stop-color="#233e36"/></linearGradient><linearGradient id="bar" x1="0" y1="0" x2="1" y2="1"><stop stop-color="#759b88"/><stop offset=".46" stop-color="#e0ecda"/><stop offset="1" stop-color="#98bda7"/></linearGradient><pattern id="grid" width="40" height="40" patternUnits="userSpaceOnUse"><path d="M40 0H0V40" fill="none" stroke="#fff" stroke-width=".7" opacity=".045"/></pattern></defs><rect width="680" height="500" fill="url(#back)"/><rect width="680" height="500" fill="url(#grid)"/><circle cx="340" cy="250" r="188" fill="none" stroke="#d6f2df" stroke-opacity=".09"/><ellipse cx="340" cy="433" rx="115" ry="16" fill="#020e10" opacity=".22"/><line x1="304.39" y1="426.01" x2="270.43" y2="301.52" stroke="#f6a084" stroke-width="1.5" stroke-linecap="round"/><line x1="419.74" y1="296.30" x2="270.43" y2="301.52" stroke="#f6a084" stroke-width="1.5" stroke-linecap="round"/><line x1="437.95" y1="408.57" x2="270.43" y2="301.52" stroke="url(#bar)" stroke-width="6.3" stroke-linecap="round"/><line x1="437.95" y1="408.57" x2="304.39" y2="426.01" stroke="#f6a084" stroke-width="1.5" stroke-linecap="round"/><line x1="437.95" y1="408.57" x2="419.74" y2="296.30" stroke="#f6a084" stroke-width="1.5" stroke-linecap="round"/><line x1="270.43" y1="301.52" x2="329.50" y2="244.15" stroke="#f6a084" stroke-width="1.5" stroke-linecap="round"/><line x1="304.39" y1="426.01" x2="329.50" y2="244.15" stroke="url(#bar)" stroke-width="6.3" stroke-linecap="round"/><line x1="329.50" y1="244.15" x2="419.74" y2="296.30" stroke="#f6a084" stroke-width="1.5" stroke-linecap="round"/><line x1="304.39" y1="426.01" x2="276.41" y2="393.15" stroke="#f6a084" stroke-width="1.5" stroke-linecap="round"/><line x1="276.41" y1="393.15" x2="419.74" y2="296.30" stroke="url(#bar)" stroke-width="6.3" stroke-linecap="round"/><line x1="276.41" y1="393.15" x2="437.95" y2="408.57" stroke="#f6a084" stroke-width="1.5" stroke-linecap="round"/><line x1="276.41" y1="393.15" x2="329.50" y2="244.15" stroke="#f6a084" stroke-width="1.5" stroke-linecap="round"/><circle cx="437.95" cy="408.57" r="2.4499999999999997" fill="#e1ebdc"/><circle cx="304.39" cy="426.01" r="2.4499999999999997" fill="#e1ebdc"/><circle cx="276.41" cy="393.15" r="2.4499999999999997" fill="#e1ebdc"/><circle cx="270.43" cy="301.52" r="2.4499999999999997" fill="#e1ebdc"/><circle cx="329.50" cy="244.15" r="2.4499999999999997" fill="#e1ebdc"/><circle cx="419.74" cy="296.30" r="2.4499999999999997" fill="#e1ebdc"/><line x1="348.86" y1="306.27" x2="314.16" y2="192.09" stroke="#f6a084" stroke-width="1.5" stroke-linecap="round"/><line x1="415.09" y1="164.48" x2="314.16" y2="192.09" stroke="#f6a084" stroke-width="1.5" stroke-linecap="round"/><line x1="314.16" y1="192.09" x2="289.92" y2="142.61" stroke="#f6a084" stroke-width="1.5" stroke-linecap="round"/><line x1="408.92" y1="284.69" x2="314.16" y2="192.09" stroke="url(#bar)" stroke-width="5.13" stroke-linecap="round"/><line x1="348.86" y1="306.27" x2="289.92" y2="142.61" stroke="url(#bar)" stroke-width="5.13" stroke-linecap="round"/><line x1="348.86" y1="306.27" x2="262.62" y2="288.21" stroke="#f6a084" stroke-width="1.5" stroke-linecap="round"/><line x1="408.92" y1="284.69" x2="348.86" y2="306.27" stroke="#f6a084" stroke-width="1.5" stroke-linecap="round"/><line x1="289.92" y1="142.61" x2="415.09" y2="164.48" stroke="#f6a084" stroke-width="1.5" stroke-linecap="round"/><line x1="262.62" y1="288.21" x2="415.09" y2="164.48" stroke="url(#bar)" stroke-width="5.13" stroke-linecap="round"/><line x1="408.92" y1="284.69" x2="415.09" y2="164.48" stroke="#f6a084" stroke-width="1.5" stroke-linecap="round"/><line x1="262.62" y1="288.21" x2="289.92" y2="142.61" stroke="#f6a084" stroke-width="1.5" stroke-linecap="round"/><line x1="262.62" y1="288.21" x2="408.92" y2="284.69" stroke="#f6a084" stroke-width="1.5" stroke-linecap="round"/><circle cx="408.92" cy="284.69" r="1.9949999999999999" fill="#e1ebdc"/><circle cx="348.86" cy="306.27" r="1.9949999999999999" fill="#e1ebdc"/><circle cx="262.62" cy="288.21" r="1.9949999999999999" fill="#e1ebdc"/><circle cx="314.16" cy="192.09" r="1.9949999999999999" fill="#e1ebdc"/><circle cx="289.92" cy="142.61" r="1.9949999999999999" fill="#e1ebdc"/><circle cx="415.09" cy="164.48" r="1.9949999999999999" fill="#e1ebdc"/><line x1="375.42" y1="178.77" x2="348.01" y2="107.40" stroke="#f6a084" stroke-width="1.5" stroke-linecap="round"/><line x1="348.01" y1="107.40" x2="282.24" y2="79.79" stroke="#f6a084" stroke-width="1.5" stroke-linecap="round"/><line x1="390.07" y1="73.21" x2="348.01" y2="107.40" stroke="#f6a084" stroke-width="1.5" stroke-linecap="round"/><line x1="375.42" y1="178.77" x2="279.51" y2="171.94" stroke="#f6a084" stroke-width="1.5" stroke-linecap="round"/><line x1="375.42" y1="178.77" x2="282.24" y2="79.79" stroke="url(#bar)" stroke-width="4.05" stroke-linecap="round"/><line x1="365.83" y1="157.07" x2="348.01" y2="107.40" stroke="url(#bar)" stroke-width="4.05" stroke-linecap="round"/><line x1="279.51" y1="171.94" x2="282.24" y2="79.79" stroke="#f6a084" stroke-width="1.5" stroke-linecap="round"/><line x1="279.51" y1="171.94" x2="390.07" y2="73.21" stroke="url(#bar)" stroke-width="4.05" stroke-linecap="round"/><line x1="282.24" y1="79.79" x2="390.07" y2="73.21" stroke="#f6a084" stroke-width="1.5" stroke-linecap="round"/><line x1="365.83" y1="157.07" x2="375.42" y2="178.77" stroke="#f6a084" stroke-width="1.5" stroke-linecap="round"/><line x1="279.51" y1="171.94" x2="365.83" y2="157.07" stroke="#f6a084" stroke-width="1.5" stroke-linecap="round"/><line x1="365.83" y1="157.07" x2="390.07" y2="73.21" stroke="#f6a084" stroke-width="1.5" stroke-linecap="round"/><circle cx="365.83" cy="157.07" r="1.575" fill="#e1ebdc"/><circle cx="375.42" cy="178.77" r="1.575" fill="#e1ebdc"/><circle cx="279.51" cy="171.94" r="1.575" fill="#e1ebdc"/><circle cx="348.01" cy="107.40" r="1.575" fill="#e1ebdc"/><circle cx="282.24" cy="79.79" r="1.575" fill="#e1ebdc"/><circle cx="390.07" cy="73.21" r="1.575" fill="#e1ebdc"/><text x="25" y="474" fill="#9eb6a9" font-family="Arial,sans-serif" font-size="9" letter-spacing="2">02 / ESTUDIO VISUAL DE MÓDULOS</text><path d="M630 36h20m-10-10v20" stroke="#9ab5a5" stroke-width=".8"/></svg>